<svg width="60" height="60" viewBox="0 0 60 60" fill="none" xmlns="http://www.w3.org/2000/svg">
<mask id="mask0_95_811" style="mask-type:luminance" maskUnits="userSpaceOnUse" x="5" y="0" width="51" height="51">
<path d="M55.7745 0H5.07031V50.7042H55.7745V0Z" fill="white"/>
</mask>
<g mask="url(#mask0_95_811)">
<path d="M47.3238 6.33803H24.0844V11.4085L27.9083 14.4718C28.1618 14.662 28.3097 14.9789 28.3097 15.2958V24.2958C28.3097 24.8873 27.8449 25.3521 27.2534 25.3521H18.8027C18.2111 25.3521 17.7463 24.8873 17.7463 24.2958V15.2958C17.7463 14.9789 17.8942 14.662 18.1478 14.4718L21.9717 11.4085V6.33803H13.521V27.4648C13.521 32.1338 17.3027 35.9155 21.9717 35.9155H34.6478C39.3168 35.9155 43.0985 32.1338 43.0985 27.4648V21.1268H47.3238C49.6689 21.1268 51.5492 19.2254 51.5492 16.9014V10.5634C51.5492 8.21831 49.6689 6.33803 47.3238 6.33803ZM47.3238 16.9014H43.0985V10.5634H47.3238V16.9014Z" fill="white"/>
<path d="M47.3238 40.1408H13.521V44.3662H47.3238V40.1408Z" fill="white"/>
</g>
</svg>
