<svg width="52" height="52" viewBox="0 0 52 52" fill="none" xmlns="http://www.w3.org/2000/svg">
<path d="M25.9999 36.8333C30.7863 36.8333 34.6666 32.953 34.6666 28.1667H17.3333C17.3333 32.953 21.2134 36.8333 25.9999 36.8333Z" fill="#F0F1F4"/>
<path d="M21.6666 21.6667C21.6666 22.8633 20.6965 23.8333 19.4999 23.8333C18.3033 23.8333 17.3333 22.8633 17.3333 21.6667C17.3333 20.4701 18.3033 19.5 19.4999 19.5C20.6965 19.5 21.6666 20.4701 21.6666 21.6667Z" fill="#F0F1F4"/>
<path d="M32.4999 23.8333C33.6966 23.8333 34.6666 22.8633 34.6666 21.6667C34.6666 20.4701 33.6966 19.5 32.4999 19.5C31.3033 19.5 30.3333 20.4701 30.3333 21.6667C30.3333 22.8633 31.3033 23.8333 32.4999 23.8333Z" fill="#F0F1F4"/>
<path fill-rule="evenodd" clip-rule="evenodd" d="M47.6666 26C47.6666 37.9661 37.966 47.6667 25.9999 47.6667C14.0337 47.6667 4.33325 37.9661 4.33325 26C4.33325 14.0338 14.0337 4.33334 25.9999 4.33334C37.966 4.33334 47.6666 14.0338 47.6666 26ZM43.3332 26C43.3332 35.573 35.5729 43.3333 25.9999 43.3333C16.427 43.3333 8.66658 35.573 8.66658 26C8.66658 16.4271 16.427 8.66668 25.9999 8.66668C35.5729 8.66668 43.3332 16.4271 43.3332 26Z" fill="#F0F1F4"/>
</svg>
