<svg width="60" height="60" viewBox="0 0 60 60" fill="none" xmlns="http://www.w3.org/2000/svg">
<path d="M35.3125 32.5H25.3125V37.5H35.3125V32.5Z" fill="#F0F1F4"/>
<path fill-rule="evenodd" clip-rule="evenodd" d="M20.3125 32.5C23.0739 32.5 25.3125 30.2615 25.3125 27.5C25.3125 24.7386 23.0739 22.5 20.3125 22.5C17.5511 22.5 15.3125 24.7386 15.3125 27.5C15.3125 30.2615 17.5511 32.5 20.3125 32.5ZM20.3125 28.75C21.0028 28.75 21.5625 28.1902 21.5625 27.5C21.5625 26.8097 21.0028 26.25 20.3125 26.25C19.6221 26.25 19.0625 26.8097 19.0625 27.5C19.0625 28.1902 19.6221 28.75 20.3125 28.75Z" fill="#F0F1F4"/>
<path fill-rule="evenodd" clip-rule="evenodd" d="M45.3125 27.5C45.3125 30.2615 43.074 32.5 40.3125 32.5C37.551 32.5 35.3125 30.2615 35.3125 27.5C35.3125 24.7386 37.551 22.5 40.3125 22.5C43.074 22.5 45.3125 24.7386 45.3125 27.5ZM41.5625 27.5C41.5625 28.1902 41.0027 28.75 40.3125 28.75C39.6222 28.75 39.0625 28.1902 39.0625 27.5C39.0625 26.8097 39.6222 26.25 40.3125 26.25C41.0027 26.25 41.5625 26.8097 41.5625 27.5Z" fill="#F0F1F4"/>
<path fill-rule="evenodd" clip-rule="evenodd" d="M6.87118 36.6657C9.3255 41.6052 14.4226 45 20.3125 45H40.3125C46.4125 45 51.6623 41.3588 54.0063 36.1313C55.9295 34.7733 57.1858 32.5332 57.1858 30C57.1858 27.4668 55.9295 25.2268 54.0063 23.8688C51.6623 18.6413 46.4125 15 40.3125 15H20.3125C14.4226 15 9.3255 18.3947 6.87118 23.3344C4.4603 24.5816 2.8125 27.0983 2.8125 30C2.8125 32.9018 4.4603 35.4185 6.87118 36.6657ZM20.3125 20H40.3125C43.7713 20 46.8198 21.7558 48.6153 24.4248C49.3058 26.1482 49.6858 28.0297 49.6858 30C49.6858 31.9702 49.3058 33.8517 48.6153 35.5752C46.8198 38.2442 43.7713 40 40.3125 40H20.3125C14.7897 40 10.3125 35.5228 10.3125 30C10.3125 24.4771 14.7897 20 20.3125 20Z" fill="#F0F1F4"/>
</svg>
